<?xml version="1.0" encoding="UTF-8"?>
<svg width="64" height="64" viewBox="0 0 64 64" fill="none" xmlns="http://www.w3.org/2000/svg">
  <!-- Background Circle -->
  <circle cx="32" cy="32" r="30" fill="#0a0a0a" />
  
  <!-- Outer Ring -->
  <circle cx="32" cy="32" r="28" stroke="#d4952f" stroke-width="1.5" fill="none" />
  
  <!-- Inner Circle -->
  <circle cx="32" cy="32" r="22" fill="#0a0a0a" stroke="#b91c1c" stroke-width="0.75" />
  
  <!-- Scissors Icon -->
  <g transform="translate(24, 26) scale(0.01)">
    <path d="M960.8 190.1c-8.2 1.2-17.3 7.5-21.7 14.9l-2.9 4.9-46.1 129.2-46.1 129.2 -1.9 0.7c-1 0.4-95.9 34.2-210.9 75.2l-209 74.5 -64.1-26.8c-35.3-14.7-65.4-26.8-66.9-26.8 -7.2 0-20.2 10-24.5 18.9 -2.5 5.1-2.8 6.6-2.4 14.7 0.3 7.9 0.9 9.9 3.9 15.3 1.9 3.4 5.6 8.1 8.2 10.3 6.1 5.2 16.7 9.2 24 9.2 5.5 0 7.3-0.8 51.8-21.9l46-21.9 3.3 1.3c6.5 2.7 206.7 87.1 207.4 87.5 0.3 0.2 1 2.2 1.4 4.4 0.9 5.2-1.2 11.4-5.3 15.8 -5.3 5.6-12.8 8.1-23.4 7.8 -14.8-0.4-24.8-5.1-87.8-41.1 -32.6-18.6-61.6-34.8-64.5-36 -22.1-9.1-51.9-1.8-66.1 16.2 -6.3 8-11.5 21.7-12.1 32 -0.8 14.4 3.5 27.5 12.5 38.1 6.3 7.5 18.5 15.2 27.5 17.3 30.2 7.1 61.1-15.6 115.1-84.9 6.8-8.7 12.6-15.9 12.9-15.9 0.6 0 16.6 10.3 120.9 77.9 36.2 23.5 66.8 43.3 68 44.1 1.2 0.7 17.3 11.3 35.7 23.5 18.4 12.2 41.2 27.3 50.6 33.6l17.2 11.4 -2.1 5.9c-1.2 3.2-21.9 61.5-46.1 129.5l-43.9 123.1 -5.3 4.4c-6.6 5.5-13.2 7.8-20.5 7.1 -15.1-1.3-23.9-15.2-18.3-28.9 1.2-3 18.3-52.9 38-110.9 19.6-58 36.4-107.5 37.2-110l1.4-4.6 8.5-3c21.4-7.6 39.6-24.8 48.7-46.1 3.3-7.6 6.8-22.6 6.8-29 0-7.4-4.5-18.5-10.3-25.4 -9.3-11.1-24.9-17.5-42.2-17.5 -11.8 0-20.4 2.3-31.1 8.3 -3.8 2.1-7.4 3.9-8 3.9 -0.6 0-32.1-20.3-70-45.2 -81.8-53.8-114.4-74.8-116.3-75.1 -0.9-0.1-1.6-0.7-1.6-1.2 0-0.6 1.2-2.8 2.7-4.9 5.4-7.7 7.9-16.2 7.5-25.5 -0.3-6.9-0.8-9-3.3-14.4 -6-12.8-17.5-21.6-31.7-24.4 -5.5-1.1-6.6-1-13.6 0.9 -13.5 3.6-19.2 7.7-85.1 61.4 -32.9 26.8-64.2 52.1-69.5 56.2 -16.5 12.8-25.2 17.4-38.5 20.5 -20.3 4.7-44.5-1.9-60.2-16.3 -11.3-10.3-17.7-22.9-19.3-38.2 -2.1-19.8 4.7-38.9 18.7-52.2 17.1-16.3 41.9-19.9 60.2-8.7 8.2 5 73.2 48.1 81.4 53.9 12.4 8.7 22.4 7.8 28.5-2.7 2.3-4 2.4-4.5 1.1-8.9 -0.7-2.6-1.9-5.6-2.6-6.6 -1.5-2.1-184.3-78.2-189.4-78.7 -1.7-0.2-6 0.8-9.5 2.2 -11.1 4.4-110.3 51.8-112 53.4 -0.9 0.8-5.6 7.7-10.6 15.3 -13.9 21.4-19.4 28.1-29.7 36.1 -23.9 18.7-57.2 18.7-80.4 0 -12.5-10.1-19.4-22.8-20.9-38.7 -3.5-36.8 34.8-65.9 72.5-55.1 13.4 3.8 27 14.4 74.3 58.1 23.1 21.4 42.3 38.8 42.7 38.8 0.4 0 4.4-1.6 8.9-3.6l8.2-3.6 1.3-4.5c4.3-14.9 15.7-28.7 30.5-37 10.2-5.7 16.6-7.1 31.2-7.1 9.4 0 14.6 0.5 19.4 1.9 16.7 4.7 31.1 17.7 37.4 33.6 1.7 4.2 2.1 7.7 2.1 16.2 0 9.2-0.3 11.7-2.4 16.8l-2.4 6 2.4 1.4c1.3 0.8 95.9 40.4 210.2 88 114.3 47.6 208.4 86.7 209.2 86.9 1.1 0.3 2.7-3.8 8.4-20.3 3.8-11.1 25.6-72.1 48.2-135.5l41.2-115.2 4.7-4.4c2.6-2.4 6.5-5.1 8.7-6 5.5-2.2 15.2-2 20.7 0.5 8.1 3.7 13.9 11.3 15.5 20.3 1.1 6.5-1.3 13.3-37.1 107.1 -20.7 54.5-37.9 99.8-38.2 100.7 -0.6 1.5 0.5 1.8 7.3 1.8 18.8 0 34.7 8.1 44.1 22.4 3.9 5.9 7.5 16.7 8.3 24.3 1.4 13.9-2.4 29.4-9.3 38.1 -9.3 11.7-17.9 17.7-31.5 21.8l-9.5 2.9 -0.5 2.2c-0.3 1.2-17.3 49.5-37.8 107.4 -20.5 57.9-37.8 106.7-38.5 108.5 -3 7.7-10.8 14.9-19.2 17.7 -5.2 1.7-15.1 1.7-20.3 0 -12.3-4.1-19.1-12.8-19.1-24.5 0-7.7 0.9-10.2 38.7-108.5 20.3-52.8 36.9-96.5 36.9-97.1 0-0.6-16.2-12.1-36-25.5 -19.8-13.4-46.1-31-58.4-39.3 -12.3-8.2-41.5-27.9-64.9-43.7 -111.7-75.1-111-74.7-110.4-77.1 0.3-1.2 0.8-2.2 1.2-2.2 0.4 0 17.3-6 37.5-13.3 20.2-7.3 53.1-19.1 73-26.2 19.9-7.1 68.8-24.6 108.7-38.9 39.9-14.3 90.9-32.5 113.3-40.5l40.7-14.5 3.8-4.1c4.8-5.2 7.8-13.1 7.8-20.3 0-10.2-6.2-20.6-14.7-24.8 -5.3-2.6-15.6-3.3-21.9-1.5z" fill="#d4952f"/>
  </g>
  
  <!-- Letter P -->
  <text x="32" y="28" font-family="'Playfair Display', serif" font-size="16" font-weight="bold" text-anchor="middle" fill="#d4952f">P</text>
  
  <!-- Decorative Line -->
  <line x1="20" y1="35" x2="44" y2="35" stroke="#b91c1c" stroke-width="0.75" />
</svg> 